<mxfile host="app.diagrams.net" modified="2021-04-15T03:20:35.577Z" agent="5.0 (Windows NT 10.0; Win64; x64) AppleWebKit/537.36 (KHTML, like Gecko) Chrome/83.0.4103.97 Safari/537.36" etag="e5m9cmuFSL9Xjv8PM2P1" version="14.6.0" type="github">
  <diagram id="6a731a19-8d31-9384-78a2-239565b7b9f0" name="Page-1">
    <mxGraphModel dx="2076" dy="267" grid="0" gridSize="10" guides="1" tooltips="1" connect="1" arrows="1" fold="1" page="1" pageScale="1" pageWidth="1169" pageHeight="827" background="#ffffff" math="0" shadow="0">
      <root>
        <mxCell id="0" />
        <mxCell id="1" parent="0" />
        <mxCell id="56" value="语音语义" style="fontSize=24;strokeWidth=2;fontFamily=Helvetica;html=1;fontColor=#FFFFFF;fontStyle=0;spacingBottom=8;spacingRight=0;spacingLeft=83;fillColor=#418ab3;align=left;" parent="1" vertex="1">
          <mxGeometry x="214" y="844" width="1428" height="49.5" as="geometry" />
        </mxCell>
        <mxCell id="V9aZ0ZeK13O3YEh0W7OT-148" value="" style="rounded=0;whiteSpace=wrap;html=1;fillColor=#418ab3;rotation=-90;" vertex="1" parent="1">
          <mxGeometry x="-135" y="1241" width="725" height="28" as="geometry" />
        </mxCell>
        <mxCell id="V9aZ0ZeK13O3YEh0W7OT-154" value="l流程" style="text;html=1;strokeColor=none;fillColor=none;align=center;verticalAlign=middle;whiteSpace=wrap;rounded=0;rotation=-90;fontSize=22;fontColor=#ffffff;" vertex="1" parent="1">
          <mxGeometry x="178" y="1574" width="99" height="47.5" as="geometry" />
        </mxCell>
        <mxCell id="V9aZ0ZeK13O3YEh0W7OT-157" value="" style="rounded=0;whiteSpace=wrap;html=1;fontSize=22;fontColor=#ffffff;strokeColor=#000000;gradientColor=#ffffff;fillColor=#FFFFFF;" vertex="1" parent="1">
          <mxGeometry x="241" y="893.5" width="467" height="719.5" as="geometry" />
        </mxCell>
        <mxCell id="V9aZ0ZeK13O3YEh0W7OT-161" value="" style="rounded=0;whiteSpace=wrap;html=1;fontSize=22;fontColor=#ffffff;strokeColor=#000000;fillColor=#FFFFFF;" vertex="1" parent="1">
          <mxGeometry x="708" y="893.5" width="467" height="719.5" as="geometry" />
        </mxCell>
        <mxCell id="V9aZ0ZeK13O3YEh0W7OT-162" value="" style="rounded=0;whiteSpace=wrap;html=1;fontSize=22;fontColor=#ffffff;strokeColor=#000000;gradientColor=#ffffff;fillColor=#FFFFFF;" vertex="1" parent="1">
          <mxGeometry x="1175" y="893.5" width="467" height="719.5" as="geometry" />
        </mxCell>
        <mxCell id="V9aZ0ZeK13O3YEh0W7OT-169" value="调音台" style="text;html=1;strokeColor=none;fillColor=none;align=center;verticalAlign=middle;whiteSpace=wrap;rounded=0;fontSize=22;fontColor=#ffffff;" vertex="1" parent="1">
          <mxGeometry x="820" y="1168" width="125" height="42" as="geometry" />
        </mxCell>
        <mxCell id="V9aZ0ZeK13O3YEh0W7OT-200" style="edgeStyle=orthogonalEdgeStyle;rounded=0;orthogonalLoop=1;jettySize=auto;html=1;exitX=0.75;exitY=1;exitDx=0;exitDy=0;fontSize=22;fontColor=#ffffff;" edge="1" parent="1" source="V9aZ0ZeK13O3YEh0W7OT-173" target="V9aZ0ZeK13O3YEh0W7OT-157">
          <mxGeometry relative="1" as="geometry" />
        </mxCell>
        <mxCell id="V9aZ0ZeK13O3YEh0W7OT-173" value="" style="fontSize=24;strokeWidth=1;fontFamily=Helvetica;html=1;fontColor=#FFFFFF;fontStyle=0;spacingBottom=8;spacingRight=0;spacingLeft=83;fillColor=#418ab3;align=center;gradientDirection=north;rounded=0;glass=0;" vertex="1" parent="1">
          <mxGeometry x="242" y="893" width="466" height="49.5" as="geometry" />
        </mxCell>
        <mxCell id="V9aZ0ZeK13O3YEh0W7OT-174" value="" style="fontSize=24;strokeWidth=1;fontFamily=Helvetica;html=1;fontColor=#FFFFFF;fontStyle=0;spacingBottom=8;spacingRight=0;spacingLeft=83;fillColor=#418ab3;align=center;gradientDirection=north;rounded=0;glass=0;" vertex="1" parent="1">
          <mxGeometry x="708" y="893.5" width="467" height="49.5" as="geometry" />
        </mxCell>
        <mxCell id="V9aZ0ZeK13O3YEh0W7OT-175" value="" style="fontSize=24;strokeWidth=1;fontFamily=Helvetica;html=1;fontColor=#FFFFFF;fontStyle=0;spacingBottom=8;spacingRight=0;spacingLeft=83;fillColor=#418ab3;align=center;gradientDirection=north;rounded=0;glass=0;" vertex="1" parent="1">
          <mxGeometry x="1175" y="893.5" width="466" height="49.5" as="geometry" />
        </mxCell>
        <mxCell id="V9aZ0ZeK13O3YEh0W7OT-177" value="调音台" style="text;html=1;strokeColor=none;fillColor=none;align=center;verticalAlign=middle;whiteSpace=wrap;rounded=0;glass=0;fontSize=22;fontColor=#ffffff;" vertex="1" parent="1">
          <mxGeometry x="386" y="893" width="146" height="50" as="geometry" />
        </mxCell>
        <mxCell id="V9aZ0ZeK13O3YEh0W7OT-178" value="调音台" style="text;html=1;strokeColor=none;fillColor=none;align=center;verticalAlign=middle;whiteSpace=wrap;rounded=0;glass=0;fontSize=22;fontColor=#ffffff;" vertex="1" parent="1">
          <mxGeometry x="855" y="893" width="162" height="50" as="geometry" />
        </mxCell>
        <mxCell id="V9aZ0ZeK13O3YEh0W7OT-179" value="调音台" style="text;html=1;strokeColor=none;fillColor=none;align=center;verticalAlign=middle;whiteSpace=wrap;rounded=0;glass=0;fontSize=22;fontColor=#ffffff;" vertex="1" parent="1">
          <mxGeometry x="1340" y="893.5" width="146" height="50" as="geometry" />
        </mxCell>
        <mxCell id="V9aZ0ZeK13O3YEh0W7OT-187" value="" style="edgeStyle=orthogonalEdgeStyle;rounded=0;orthogonalLoop=1;jettySize=auto;html=1;fontSize=22;fontColor=#ffffff;" edge="1" parent="1" source="V9aZ0ZeK13O3YEh0W7OT-181" target="V9aZ0ZeK13O3YEh0W7OT-182">
          <mxGeometry relative="1" as="geometry" />
        </mxCell>
        <mxCell id="V9aZ0ZeK13O3YEh0W7OT-181" value="" style="rounded=1;whiteSpace=wrap;html=1;glass=0;fontSize=22;fontColor=#ffffff;strokeColor=#000000;strokeWidth=1;fillColor=#418ab3;gradientColor=none;align=center;arcSize=50;" vertex="1" parent="1">
          <mxGeometry x="371" y="969" width="120" height="60" as="geometry" />
        </mxCell>
        <mxCell id="V9aZ0ZeK13O3YEh0W7OT-182" value="" style="rounded=0;whiteSpace=wrap;html=1;glass=0;fontSize=22;fontColor=#ffffff;strokeColor=#000000;strokeWidth=1;fillColor=#418ab3;gradientColor=none;align=center;" vertex="1" parent="1">
          <mxGeometry x="306" y="1084" width="250" height="75" as="geometry" />
        </mxCell>
        <mxCell id="V9aZ0ZeK13O3YEh0W7OT-183" value="" style="rounded=0;whiteSpace=wrap;html=1;glass=0;fontSize=22;fontColor=#ffffff;strokeColor=#000000;strokeWidth=1;fillColor=#418ab3;gradientColor=none;align=center;" vertex="1" parent="1">
          <mxGeometry x="816.5" y="1084" width="250" height="75" as="geometry" />
        </mxCell>
        <mxCell id="V9aZ0ZeK13O3YEh0W7OT-201" value="" style="verticalLabelPosition=bottom;verticalAlign=top;html=1;shape=process;whiteSpace=wrap;rounded=1;size=0.5;arcSize=6;glass=0;fontSize=22;fontColor=#ffffff;strokeColor=#000000;strokeWidth=1;fillColor=#418ab3;gradientColor=none;align=center;" vertex="1" parent="1">
          <mxGeometry x="84" y="1577" width="100" height="60" as="geometry" />
        </mxCell>
      </root>
    </mxGraphModel>
  </diagram>
</mxfile>
